<?xml version="1.0" standalone="no"?>
<!DOCTYPE svg PUBLIC "-//W3C//DTD SVG 20010904//EN"
 "http://www.w3.org/TR/2001/REC-SVG-20010904/DTD/svg10.dtd">
<svg version="1.0" xmlns="http://www.w3.org/2000/svg"
 width="260.000000pt" height="260.000000pt" viewBox="0 0 260.000000 260.000000"
 preserveAspectRatio="xMidYMid meet">
<metadata>
Created by potrace 1.11, written by Peter Selinger 2001-2013
</metadata>
<g transform="translate(0.000000,260.000000) scale(0.100000,-0.100000)"
fill="#000000" stroke="none">
<path d="M1200 2564 c-257 -30 -440 -94 -635 -223 -90 -59 -267 -236 -326
-326 -100 -151 -177 -338 -206 -499 -21 -119 -21 -333 0 -452 29 -161 106
-348 206 -499 59 -90 236 -267 326 -326 151 -100 338 -177 499 -206 119 -21
333 -21 452 0 161 29 348 106 499 206 90 59 267 236 326 326 100 151 177 338
206 499 21 119 21 333 0 452 -29 161 -106 348 -206 499 -25 39 -93 117 -151
175 -235 235 -515 358 -850 373 -58 3 -121 3 -140 1z m276 -246 c-37 -170 -39
-192 -19 -207 19 -15 19 -17 -4 -131 -12 -63 -23 -117 -23 -119 0 -2 -9 -1
-20 2 -23 6 -23 5 -45 -118 -9 -49 -18 -98 -21 -107 -4 -13 0 -18 15 -18 12 0
21 -5 21 -11 0 -6 -25 -138 -55 -294 -30 -157 -55 -312 -55 -345 0 -61 7 -75
56 -108 16 -11 13 -12 -26 -7 -29 4 -55 15 -72 32 -19 18 -28 22 -28 12 0 -8
-3 -31 -6 -52 l-7 -37 231 0 c222 0 231 1 237 20 6 18 15 20 113 20 122 0 153
-6 145 -26 -4 -11 8 -14 61 -14 64 0 66 -1 61 -22 -6 -27 -65 -338 -65 -344 0
-2 -301 -4 -670 -4 -369 0 -670 3 -670 8 0 4 23 123 50 265 42 214 50 277 50
369 0 74 7 150 22 225 20 102 24 113 44 113 19 0 23 9 36 75 14 71 14 75 -4
87 -19 13 -18 19 27 258 43 221 50 248 75 275 22 23 32 50 45 115 9 47 18 91
20 98 3 9 61 12 245 12 l240 0 -4 -22z"/>
</g>
</svg>
